HIERARCHY
ROOT Hips
{
	OFFSET 0.000000 0.000000 0.000000 
	CHANNELS 6 Xposition Yposition Zposition Zrotation Yrotation Xrotation
	JOINT LeftUpLeg
	{
		OFFSET 1.363060 -1.794630 0.839290 
		CHANNELS 3 Zrotation Yrotation Xrotation
		JOINT LeftLeg
		{
			OFFSET 2.448110 -6.726130 0.000000 
			CHANNELS 3 Zrotation Yrotation Xrotation
			JOINT LeftFoot
			{
				OFFSET 2.562200 -7.039590 0.000000 
				CHANNELS 3 Zrotation Yrotation Xrotation
				JOINT LeftToeBase
				{
					OFFSET 0.157640 -0.433110 2.322550 
					CHANNELS 3 Zrotation Yrotation Xrotation
					End Site
					{
						OFFSET 0.000000 0.000000 0.000000 
					}
				}
			}
		}
	}
	JOINT RightUpLeg
	{
		OFFSET -1.305520 -1.794630 0.839290 
		CHANNELS 3 Zrotation Yrotation Xrotation
		JOINT RightLeg
		{
			OFFSET -2.542530 -6.985550 0.000000 
			CHANNELS 3 Zrotation Yrotation Xrotation
			JOINT RightFoot
			{
				OFFSET -2.568260 -7.056230 0.000000 
				CHANNELS 3 Zrotation Yrotation Xrotation
				JOINT RightToeBase
				{
					OFFSET -0.164730 -0.452590 2.363150 
					CHANNELS 3 Zrotation Yrotation Xrotation
					End Site
					{
						OFFSET 0.000000 0.000000 0.000000 
					}
				}
			}
		}
	}
	JOINT Spine
	{
		OFFSET 0.028270 2.035590 -0.193380 
		CHANNELS 3 Zrotation Yrotation Xrotation
		JOINT Spine1
		{
			OFFSET 0.056720 2.048850 -0.042750 
			CHANNELS 3 Zrotation Yrotation Xrotation
			JOINT Neck1
			{
				OFFSET -0.054170 1.746240 0.172020 
				CHANNELS 3 Zrotation Yrotation Xrotation
				JOINT Head
				{
					OFFSET 0.104070 1.761360 -0.123970 
					CHANNELS 3 Zrotation Yrotation Xrotation
					End Site
					{
						OFFSET 0.000000 0.000000 0.000000 
					}
				}
			}
			JOINT LeftArm
			{
				OFFSET 3.362410 1.200890 -0.311210 
				CHANNELS 3 Zrotation Yrotation Xrotation
				JOINT LeftForeArm
				{
					OFFSET 4.983000 -0.000000 -0.000000 
					CHANNELS 3 Zrotation Yrotation Xrotation
					JOINT LeftHand
					{
						OFFSET 3.483560 -0.000000 -0.000000 
						CHANNELS 3 Zrotation Yrotation Xrotation
						JOINT LeftHandIndex1
						{
							OFFSET 0.715260 -0.000000 -0.000000 
							CHANNELS 3 Zrotation Yrotation Xrotation
							End Site
							{
								OFFSET 0.000000 0.000000 0.000000 
							}
						}
					}
				}
			}
			JOINT RightArm
			{
				OFFSET -3.136600 1.374050 -0.404650 
				CHANNELS 3 Zrotation Yrotation Xrotation
				JOINT RightForeArm
				{
					OFFSET -5.241900 -0.000000 -0.000000 
					CHANNELS 3 Zrotation Yrotation Xrotation
					JOINT RightHand
					{
						OFFSET -3.444170 -0.000000 -0.000000 
						CHANNELS 3 Zrotation Yrotation Xrotation
						JOINT RightHandIndex1
						{
							OFFSET -0.622530 -0.000000 -0.000000 
							CHANNELS 3 Zrotation Yrotation Xrotation
							End Site
							{
								OFFSET 0.000000 0.000000 0.000000 
							}
						}
					}
				}
			}
		}
	}
}
MOTION
Frames: 12
Frame Time: 0.041667
-40.061679 17.318033 16.943293 138.297987 83.914986 141.440014 -20.509319 2.062737 -10.221354 1.307911 11.754463 33.088842 0.582789 1.807706 -12.368455 0.013700 -0.757100 -2.080600 9.648971 3.989797 -8.976241 -2.764374 -12.734240 37.705473 1.556468 -10.345693 -17.690129 -0.141200 2.422100 -6.673800 0.144783 1.737832 -2.358950 5.020043 0.943433 7.581716 25.306961 -40.659817 -10.206181 21.601100 -12.392300 7.220200 -92.384740 10.303375 52.411498 116.336197 -56.449876 -79.354947 -0.679266 1.212594 -44.663185 -7.125000 0.000000 0.000000 81.360741 -9.506858 62.628354 -121.264291 54.589984 -85.883216 -0.362512 -1.184550 -14.962020 7.125000 0.000000 0.000000 
-40.027439 17.315795 16.923040 138.156492 84.398534 141.268129 -20.381782 3.095473 -10.622428 1.553886 12.017913 34.027708 0.588039 2.005646 -13.139145 0.172300 -2.673700 -7.371600 9.837365 4.099643 -8.841410 -2.721214 -12.694484 37.577440 1.497399 -10.191557 -17.756726 -0.132800 2.349200 -6.471600 -0.010719 2.837940 -2.391491 3.950720 1.656352 6.898580 25.720662 -41.916320 -10.942310 21.673300 -12.909800 7.556700 -91.281127 11.814269 55.262225 116.509129 -56.459705 -79.395008 -0.604065 1.186216 -43.158222 -7.125000 0.000000 0.000000 82.573690 -11.046429 60.148981 -121.225709 54.498661 -85.919299 -0.338945 -1.264886 -14.828549 7.125000 0.000000 0.000000 
-39.999241 17.303934 16.901220 136.460580 84.652305 139.614019 -20.457415 3.330790 -10.806775 1.606988 12.069495 34.231321 0.600656 2.035729 -13.395514 0.200300 -2.881700 -7.949500 9.716247 4.023633 -9.016283 -2.760136 -12.728720 37.706517 1.415917 -9.973978 -17.849067 -0.151000 2.503800 -6.900100 0.020371 2.642945 -2.517631 4.123064 1.546068 5.856645 24.392822 -40.025336 -9.480974 21.998200 -12.547500 7.004900 -91.723012 13.101911 55.141301 116.123546 -56.461256 -79.048208 -0.612021 1.257621 -40.889772 -7.125000 0.000000 0.000000 82.369947 -12.467093 60.572311 -121.132339 54.538159 -85.799706 -0.357540 -1.239109 -14.955667 7.125000 0.000000 0.000000 
-39.970596 17.281667 16.874701 133.144398 84.839991 136.423081 -20.654677 2.640168 -10.985527 1.658504 12.180208 34.519736 0.846468 1.289103 -13.798077 0.015500 -0.803500 -2.208200 9.421223 4.098571 -9.191217 -2.784059 -12.746085 37.758661 1.406696 -9.920954 -17.799211 -0.186300 2.779900 -7.666500 0.003720 2.708645 -2.562387 4.109332 1.575192 5.551102 23.801486 -39.076410 -8.784335 21.930600 -12.311300 6.964600 -91.799444 13.465502 55.523628 115.771511 -56.497064 -78.747916 -0.596177 1.308795 -38.483169 -7.125000 0.000000 0.000000 82.399876 -12.782870 60.580297 -120.809027 54.585264 -85.589901 -0.269246 -1.226386 -15.506826 7.125000 0.000000 0.000000 
-39.943517 17.253133 16.854671 132.361412 85.354280 135.587677 -20.399498 3.484868 -11.189318 1.776000 12.268409 34.886653 0.903169 1.131322 -13.913625 0.048600 -1.422600 -3.912300 9.694685 4.350259 -9.128220 -2.812799 -12.812672 37.945447 1.392888 -9.949317 -17.963439 -0.201700 2.891700 -7.977300 0.009159 2.890680 -2.555152 4.126130 1.660947 5.522938 23.611495 -38.611296 -8.579127 21.820400 -12.113600 7.021800 -91.842357 13.254316 56.143665 115.276360 -56.559782 -78.305580 -0.579227 1.360365 -36.833653 -7.125000 0.000000 0.000000 82.377337 -12.712600 60.304094 -120.541650 54.672460 -85.385654 -0.253410 -1.232524 -15.953183 7.125000 0.000000 0.000000 
-39.907934 17.239706 16.832628 132.154983 85.769506 135.356740 -20.153321 3.910076 -11.509657 1.874531 12.367249 35.243365 0.837746 1.299336 -13.686203 0.078300 -1.805500 -4.968300 9.895688 4.288887 -9.120354 -2.841993 -12.857219 38.095103 1.249757 -9.603123 -18.192172 -0.182600 2.752300 -7.589900 -0.008297 3.102848 -2.560535 3.910263 1.791921 5.377156 23.346029 -38.299540 -8.303053 21.693900 -12.056800 7.130100 -91.611242 13.323474 57.198035 114.666443 -56.679285 -77.762631 -0.548347 1.397064 -34.972441 -7.125000 0.000000 0.000000 82.593900 -12.886917 59.814244 -120.242072 54.750542 -85.122907 -0.233433 -1.258632 -16.264741 7.125000 0.000000 0.000000 
-39.877498 17.205018 16.808682 129.862213 86.002433 133.151515 -20.154250 4.666023 -11.864242 2.037156 12.510078 35.765615 1.160402 0.118871 -13.592368 0.020300 -0.920200 -2.529100 9.832356 4.386779 -9.267015 -2.887315 -12.911974 38.265421 1.273632 -9.666172 -18.155806 -0.216900 2.998400 -8.274400 -0.055040 3.467483 -2.614568 3.674066 2.010271 4.897712 22.802134 -37.934384 -7.718205 21.567900 -12.136400 7.384800 -91.156492 13.102189 59.300511 114.442108 -56.625042 -77.597699 -0.592235 1.397171 -35.423004 -7.125000 0.000000 0.000000 83.022541 -13.384432 58.956988 -119.599102 54.916540 -84.571262 -0.192252 -1.295770 -16.516518 7.125000 0.000000 0.000000 
-39.843818 17.194500 16.782610 127.810480 86.369175 131.152495 -20.063848 5.099591 -12.253647 2.156019 12.645867 36.219876 1.130951 0.289412 -13.785778 0.048800 -1.425900 -3.921500 9.916619 4.513277 -9.276055 -2.923353 -12.970177 38.412292 1.257362 -9.534060 -17.896089 -0.209300 2.945800 -8.128000 -0.032047 3.336181 -2.538584 3.779512 1.911018 5.578992 23.067922 -37.444184 -7.810525 21.603500 -11.728100 7.570100 -91.205064 11.521641 59.408372 113.744949 -56.732399 -77.083550 -0.604823 1.430792 -33.889973 -7.125000 0.000000 0.000000 82.872973 -12.555015 59.161486 -119.762266 54.861288 -84.770112 -0.182136 -1.277218 -16.858761 7.125000 0.000000 0.000000 
-39.817858 17.168987 16.756539 125.844065 86.717524 129.171221 -19.922386 5.606322 -12.370956 2.293840 12.759699 36.635001 1.459642 -0.851841 -13.925484 0.000800 -0.187000 -0.513800 9.978197 4.435913 -9.383750 -2.998952 -13.062517 38.685924 1.054408 -8.846314 -17.671053 -0.147600 2.476100 -6.823400 -0.040932 3.418788 -2.490861 3.644351 1.953749 5.837679 23.236517 -37.191989 -7.936203 21.646200 -11.502900 7.650200 -91.109905 11.075584 59.482343 112.569378 -57.031021 -76.048267 -0.525059 1.472090 -29.792558 -7.125000 0.000000 0.000000 83.237023 -11.393107 58.945160 -118.860880 55.063076 -84.033625 -0.094272 -1.298031 -17.512353 7.125000 0.000000 0.000000 
-39.790331 17.136537 16.728117 121.890781 86.922188 125.379653 -20.018633 6.250345 -12.651272 2.417912 12.863693 37.020869 1.660673 -1.568051 -14.011002 0.000700 0.168900 0.464000 9.852432 4.537203 -9.614131 -3.063383 -13.146751 38.918304 1.019925 -8.695330 -17.529547 -0.152600 2.517400 -6.937800 -0.063454 3.600321 -2.482593 3.521044 2.043979 5.664105 23.326480 -37.220234 -8.249287 21.712300 -11.427600 7.254900 -90.940526 10.798095 60.219803 110.907080 -57.396475 -74.522352 -0.471063 1.512233 -27.042153 -7.125000 0.000000 0.000000 83.249110 -12.159254 58.342584 -119.872859 54.776164 -84.974329 -0.052582 -1.292588 -17.973822 7.125000 0.000000 0.000000 
-39.754972 17.108899 16.697234 116.279579 86.920155 120.131025 -20.336669 6.793069 -13.129610 2.525703 12.972613 37.381857 1.847601 -2.248646 -14.099425 0.001500 0.250600 0.688600 9.499178 4.559765 -10.054501 -3.136703 -13.241707 39.176304 0.946887 -8.551429 -17.772989 -0.145300 2.456400 -6.768700 -0.077202 3.705684 -2.480196 3.581547 2.073970 5.433336 23.535164 -37.401269 -8.820593 22.050400 -11.364500 6.543800 -90.533278 9.529633 62.003490 110.354896 -57.381063 -74.057863 -0.540656 1.503018 -27.585181 -7.125000 0.000000 0.000000 83.605557 -11.693911 57.865808 -119.048950 55.011739 -84.312187 0.003525 -1.302836 -18.392284 7.125000 0.000000 0.000000 
-39.714801 17.087863 16.666239 112.011032 86.896687 116.176251 -20.592718 7.346428 -13.623412 2.634002 13.082558 37.749215 1.978445 -2.711458 -14.221804 0.000500 -0.148900 -0.409200 9.180429 4.307156 -10.507059 -3.220061 -13.337064 39.460995 0.736030 -8.078334 -18.274053 -0.127500 2.301900 -6.340900 -0.085023 3.758508 -2.471739 3.705280 2.076267 5.461309 23.542833 -37.194467 -8.894834 22.206500 -11.223500 6.377500 -90.365713 8.576922 62.898992 109.359181 -57.534321 -73.164082 -0.546171 1.513275 -25.680949 -7.125000 0.000000 0.000000 83.736533 -11.391871 57.387958 -118.951609 55.047406 -84.292721 0.037534 -1.303222 -18.737164 7.125000 0.000000 0.000000 
